# File produced by Open Asset Import Library (http://www.assimp.sf.net)
# (assimp v3.1.6393133)

mtllib FlashLight.mtl

# vertex positions
v -9.484887 -1.428316 -0.884272
v -9.484887 0.062471 -1.772184
v -2.850784 0.062471 -1.772184
v -2.850784 -1.428316 -0.884272
v -9.484887 1.537060 -0.890056
v -2.850784 1.537060 -0.890056
v -9.484887 1.541216 0.292282
v -9.484887 1.543296 0.883450
v -2.850784 1.543296 0.883450
v -2.850784 1.541216 0.292282
v -9.484887 0.057569 1.774329
v -2.850784 0.057569 1.774329
v -9.484887 -1.422357 0.895665
v -2.850784 -1.422356 0.895665
v -9.484887 0.118898 0.000000
v -9.484887 1.539138 -0.298887
v -0.089475 1.543296 0.883450
v -0.089475 1.541216 0.292281
v -0.089475 1.537060 -0.890056
v -0.089475 0.062471 -1.772184
v -0.089475 -1.428316 -0.884272
v -0.089475 -1.422356 0.895665
v -0.089475 0.057569 1.774329
v 3.757206 1.543296 0.883450
v 3.757206 1.541217 0.292281
v 3.757206 1.537060 -0.890056
v 3.757206 0.062471 -1.772184
v 3.757206 -1.428316 -0.884272
v 3.757206 -1.422355 0.895664
v 3.757206 0.057569 1.774329
v -0.089478 1.539180 -0.298888
v 3.757206 1.539138 -0.298887
v -2.850784 1.539138 -0.298887
v -2.735791 1.703270 -0.288967
v -2.733471 1.712047 0.302136
v -0.936862 2.170867 0.288087
v -0.937636 2.162484 -0.303027
v -2.827693 1.620772 0.297733
v -2.829891 1.611863 -0.293640
v -0.089725 1.546220 0.292218
v -0.698002 2.188323 0.286776
v -0.698897 2.180010 -0.304337
v -0.467907 2.121857 0.286579
v -0.468849 2.113802 -0.304533
v -0.275143 1.979720 0.287519
v -0.275949 1.972050 -0.303592
v -0.143641 1.779559 0.289480
v -0.144054 1.772287 -0.301630
v 6.072535 -2.615163 -1.591475
v 6.569215 -2.309432 -1.425969
v 6.569215 -2.299670 1.444469
v 6.072524 -2.604435 1.610253
v 6.070945 0.066446 -3.187671
v 6.569215 0.066670 -2.836864
v 6.072531 2.718926 -1.601880
v 6.569215 2.414189 -1.436711
v 6.073669 2.723247 -0.538610
v 6.569215 2.417668 -0.587927
v 6.073682 2.726993 0.525012
v 6.569215 2.421750 0.576760
v 6.072540 2.730146 1.588285
v 6.569215 2.424380 1.423408
v 6.070926 0.057632 3.189806
v 6.569215 0.056218 2.839019
v 5.577907 -1.065480 -0.713505
v 5.577907 0.122571 -1.418952
v 5.577907 0.178473 -0.001040
v 5.577907 1.296330 -0.718876
v 5.577907 1.301426 0.711184
v 5.577907 0.117346 1.418989
v 5.577907 -1.060599 0.721714

# UV coordinates
vt 0.092793 0.998008
vt 0.025771 0.998008
vt 0.025771 0.586420
vt 0.092793 0.586420
vt 0.169229 0.001992
vt 0.215587 0.001992
vt 0.215587 0.413580
vt 0.169229 0.413580
vt 0.250067 0.001992
vt 0.267307 0.001992
vt 0.267307 0.413580
vt 0.250067 0.413580
vt 0.340587 0.001992
vt 0.407482 0.001992
vt 0.407482 0.413580
vt 0.340587 0.413580
vt 0.478275 0.001992
vt 0.524607 0.001992
vt 0.524607 0.413580
vt 0.478275 0.413580
vt 0.576511 0.001992
vt 0.576511 0.413580
vt 0.806163 0.273707
vt 0.811109 0.206685
vt 0.858548 0.245859
vt 0.852521 0.310380
vt 0.904241 0.280757
vt 0.887001 0.290631
vt 0.869761 0.300506
vt 0.909345 0.213862
vt 0.863012 0.176944
vt 0.267307 0.584895
vt 0.250067 0.584895
vt 0.215587 0.584895
vt 0.169229 0.584895
vt 0.025771 0.415105
vt 0.092793 0.415105
vt 0.576511 0.584895
vt 0.524607 0.584895
vt 0.478275 0.584895
vt 0.407482 0.584895
vt 0.340587 0.584895
vt 0.267307 0.823548
vt 0.250067 0.823548
vt 0.215587 0.823548
vt 0.169229 0.823548
vt 0.025771 0.176452
vt 0.092793 0.176452
vt 0.576511 0.823548
vt 0.524607 0.823548
vt 0.478275 0.823548
vt 0.407482 0.823548
vt 0.340587 0.823548
vt 0.232827 0.584895
vt 0.232827 0.823548
vt 0.232827 0.413580
vt 0.232827 0.001992
vt 0.850470 0.007830
vt 0.867802 0.007974
vt 0.873827 0.119438
vt 0.856500 0.119390
vt 0.767042 0.218790
vt 0.776916 0.236030
vt 0.774229 0.237304
vt 0.764590 0.219963
vt 0.800573 0.222051
vt 0.790697 0.239290
vt 0.800397 0.221982
vt 0.866394 0.002128
vt 0.849052 0.001992
vt 0.874033 0.134257
vt 0.856708 0.134201
vt 0.873096 0.148532
vt 0.855773 0.148474
vt 0.871130 0.160492
vt 0.853813 0.160442
vt 0.868380 0.168650
vt 0.851069 0.168625
vt 0.792199 0.218790
vt 0.782507 0.236101
vt 0.806552 0.169947
vt 0.799527 0.161788
vt 0.794545 0.149829
vt 0.792227 0.135553
vt 0.792858 0.120734
vt 0.809124 0.009270
vt 0.812239 0.003425
vt 0.814926 0.001992
vt 0.814926 0.173307
vt 0.814750 0.173291
vt 0.843119 0.001992
vt 0.843120 0.173307
vt 0.840668 0.172011
vt 0.837553 0.166173
vt 0.821274 0.054613
vt 0.820639 0.039801
vt 0.822949 0.025529
vt 0.827917 0.013561
vt 0.834929 0.005378
vt 0.613742 0.967193
vt 0.604636 0.998008
vt 0.520932 0.998008
vt 0.520378 0.967193
vt 0.114461 0.001992
vt 0.122357 0.032807
vt 0.001815 0.032905
vt 0.007710 0.001992
vt 0.138291 0.998008
vt 0.128075 0.967095
vt 0.211435 0.967193
vt 0.211971 0.998008
vt 0.242451 0.967264
vt 0.236731 0.998008
vt 0.273469 0.967265
vt 0.270696 0.998008
vt 0.304469 0.967194
vt 0.295381 0.998008
vt 0.318891 0.998008
vt 0.310983 0.967194
vt 0.431297 0.967094
vt 0.425444 0.998008
vt 0.447298 0.998008
vt 0.437065 0.967094
vt 0.739127 0.081420
vt 0.743006 0.134795
vt 0.700942 0.112890
vt 0.706167 0.164022
vt 0.664461 0.140137
vt 0.660458 0.086861
vt 0.697275 0.057441
vt 0.693607 0.001992
vt 0.777312 0.049949
vt 0.785070 0.156700
vt 0.711391 0.215153
vt 0.686631 0.200993
vt 0.652666 0.181538
vt 0.627980 0.167384
vt 0.619973 0.060832

# vertex normals
vn 0.000000 -0.511713 -0.859156
vn 0.000000 -0.511713 -0.859156
vn 0.000000 -0.511713 -0.859156
vn 0.000000 0.513372 -0.858166
vn 0.000000 0.513372 -0.858166
vn 0.000000 0.999994 -0.003516
vn 0.000000 0.999994 -0.003517
vn 0.000000 0.999994 -0.003517
vn 0.000000 0.999994 -0.003516
vn 0.000000 0.514259 0.857635
vn 0.000000 0.514259 0.857635
vn -0.000000 0.514259 0.857635
vn 0.000000 -0.510521 0.859865
vn 0.000000 -0.510521 0.859865
vn 0.000000 -0.510521 0.859865
vn 0.000000 -0.510521 0.859865
vn 0.000000 -0.999994 0.003348
vn 0.000000 -0.999994 0.003348
vn -1.000000 -0.000000 -0.000000
vn -1.000000 0.000000 0.000000
vn -1.000000 0.000000 0.000000
vn -1.000000 -0.000000 0.000000
vn -1.000000 0.000000 0.000000
vn -0.000000 0.999994 -0.003517
vn 0.000002 0.999994 -0.003503
vn 0.000000 0.513372 -0.858166
vn 0.000000 -0.511713 -0.859156
vn 0.000000 -0.999994 0.003349
vn 0.000000 -0.999994 0.003349
vn 0.000000 -0.510521 0.859865
vn -0.000000 0.514259 0.857635
vn -0.000000 0.514259 0.857635
vn -0.236122 0.971717 -0.003417
vn -0.227782 0.973706 -0.003414
vn -0.247780 0.497363 -0.831405
vn -0.242219 0.498084 -0.832612
vn -0.246137 -0.495970 -0.832724
vn -0.246051 -0.495982 -0.832743
vn -0.236137 -0.971714 0.003254
vn -0.241656 -0.970356 0.003250
vn -0.247899 -0.494586 0.833025
vn -0.242269 -0.495312 0.834249
vn -0.246103 0.498443 0.831257
vn -0.246010 0.498455 0.831277
vn 0.000000 0.999994 -0.003551
vn 0.000002 0.999994 -0.003525
vn -0.227781 0.973706 -0.003423
vn -0.241627 0.970363 -0.003429
vn -0.000002 0.999994 -0.003526
vn -0.000001 0.999994 -0.003521
vn 0.000000 0.999994 -0.003515
vn 0.000000 0.999994 -0.003515
vn -0.278460 0.960357 -0.013177
vn -0.280410 0.959790 -0.013162
vn -0.228239 0.973512 -0.013499
vn -0.227634 0.973653 -0.013501
vn -0.960711 0.277550 -0.000794
vn -0.960711 0.277550 -0.000794
vn -0.825677 0.564117 -0.005410
vn -0.817652 0.575686 -0.005605
vn 0.998746 0.050072 -0.000135
vn 0.974006 0.226504 -0.002878
vn 0.974495 0.224392 -0.002845
vn 0.104591 0.994416 -0.014075
vn 0.102518 0.994632 -0.014076
vn 0.445910 0.894986 -0.012831
vn 0.437618 0.899069 -0.012888
vn 0.731134 0.682164 -0.009762
vn 0.719290 0.694639 -0.009947
vn 0.923834 0.382757 -0.005253
vn 0.913762 0.406211 -0.005611
vn 0.003691 -0.001564 0.999992
vn 0.003691 -0.001564 0.999992
vn 0.003691 -0.001564 0.999992
vn 0.003691 -0.001564 0.999992
vn 0.003691 -0.001564 0.999992
vn 0.003691 -0.001564 0.999992
vn 0.003691 -0.001564 0.999992
vn 0.003691 -0.001564 0.999992
vn -0.003706 0.001710 -0.999992
vn -0.003706 0.001710 -0.999992
vn -0.003706 0.001710 -0.999992
vn -0.003706 0.001710 -0.999992
vn -0.003706 0.001710 -0.999992
vn -0.003706 0.001710 -0.999992
vn -0.003706 0.001710 -0.999992
vn -0.003706 0.001710 -0.999992
vn -0.003706 0.001710 -0.999992
vn 0.523592 -0.851964 0.002875
vn 0.523592 -0.851964 0.002875
vn 0.523592 -0.851964 0.002875
vn 0.523592 -0.851964 0.002875
vn 0.516510 -0.437483 -0.736088
vn 0.516510 -0.437483 -0.736088
vn 0.515858 0.439113 -0.735575
vn 0.515858 0.439113 -0.735575
vn 0.515857 0.439113 -0.735575
vn 0.515858 0.439113 -0.735575
vn 0.524236 0.851565 -0.003785
vn 0.524236 0.851565 -0.003785
vn 0.524474 0.851420 -0.003359
vn 0.524474 0.851420 -0.003360
vn 0.524460 0.851431 -0.002680
vn 0.524427 0.851451 -0.002634
vn 0.524170 0.851610 -0.002265
vn 0.524170 0.851611 -0.002265
vn 0.516549 0.439640 0.734775
vn 0.516549 0.439640 0.734775
vn 0.516549 0.439640 0.734775
vn 0.515802 -0.436686 0.737057
vn 0.515802 -0.436686 0.737058
vn 0.515802 -0.436686 0.737058
vn 0.515802 -0.436686 0.737057
vn 0.865259 0.433176 0.252360
vn 0.863033 0.007182 0.505097
vn 1.000000 -0.000000 -0.000000
vn 0.842098 -0.473027 0.259070
vn 0.848130 -0.460496 -0.261953
vn 0.863079 -0.016947 -0.504784
vn 0.860184 0.445506 -0.248210
vn -0.464647 -0.453120 -0.760779
vn -0.464647 -0.453120 -0.760779
vn -0.465449 0.454372 -0.759541
vn -0.465449 0.454372 -0.759541
vn -0.455408 0.890278 -0.003130
vn -0.455408 0.890278 -0.003130
vn -0.464621 0.455382 0.759444
vn -0.464621 0.455382 0.759444
vn -0.465548 -0.451823 0.761000
vn -0.455441 -0.890261 0.002981
vn -0.455441 -0.890261 0.002981
vn -0.455408 0.890277 -0.003130
vn -0.455408 0.890277 -0.003130
vn 0.822588 0.498126 -0.274261
vn 0.822188 0.507010 0.258743
vn 0.819375 -0.008634 0.573192
vn 0.801024 -0.521727 0.293533
vn 0.749054 -0.662505 0.002361
vn 0.749054 -0.662505 0.002361
vn 0.800865 -0.529802 -0.279150
vn 0.820212 0.021615 -0.571651

# Mesh
g pCylinder1
usemtl standardSurface1
f 4/4/3 1/1/1 2/2/1
f 2/2/1 3/3/2 4/4/3
f 3/8/5 2/5/4 5/6/4
f 5/6/4 6/7/5 3/8/5
f 10/12/9 7/9/6 8/10/7
f 8/10/7 9/11/8 10/12/9
f 9/16/12 8/13/10 11/14/11
f 11/14/11 12/15/12 9/16/12
f 12/20/16 11/17/13 13/18/14
f 13/18/14 14/19/15 12/20/16
f 14/19/18 13/18/17 1/21/17
f 1/21/17 4/22/18 14/19/18
f 2/23/19 1/24/20 15/25/21
f 5/26/22 2/23/19 15/25/21
f 15/25/21 8/27/22 7/28/22
f 15/25/21 7/28/22 16/29/22
f 16/29/22 5/26/22 15/25/21
f 11/30/22 8/27/22 15/25/21
f 13/31/23 11/30/22 15/25/21
f 1/24/20 13/31/23 15/25/21
f 18/33/25 10/12/9 9/11/8
f 9/11/8 17/32/24 18/33/25
f 20/35/26 3/8/5 6/7/5
f 6/7/5 19/34/26 20/35/26
f 21/37/27 4/4/3 3/3/2
f 3/3/2 20/36/27 21/37/27
f 22/39/29 14/19/18 4/22/18
f 4/22/18 21/38/28 22/39/29
f 23/40/30 12/20/16 14/19/15
f 14/19/15 22/39/30 23/40/30
f 17/42/32 9/16/12 12/15/12
f 12/15/12 23/41/31 17/42/32
f 25/44/34 18/33/25 17/32/24
f 17/32/24 24/43/33 25/44/34
f 27/46/36 20/35/26 19/34/26
f 19/34/26 26/45/35 27/46/36
f 28/48/38 21/37/27 20/36/27
f 20/36/27 27/47/37 28/48/38
f 29/50/40 22/39/29 21/38/28
f 21/38/28 28/49/39 29/50/40
f 30/51/42 23/40/30 22/39/30
f 22/39/30 29/50/41 30/51/42
f 24/53/44 17/42/32 23/41/31
f 23/41/31 30/52/43 24/53/44
f 26/45/48 19/34/45 31/54/46
f 31/54/46 32/55/47 26/45/48
f 19/34/45 6/7/49 33/56/50
f 33/56/50 31/54/46 19/34/45
f 6/7/49 5/6/51 16/57/52
f 16/57/52 33/56/50 6/7/49
f 32/55/47 31/54/46 18/33/25
f 18/33/25 25/44/34 32/55/47
f 37/61/56 34/58/53 35/59/54
f 35/59/54 36/60/55 37/61/56
f 33/56/50 16/57/52 7/9/6
f 7/9/6 10/12/9 33/56/50
f 39/65/60 33/62/57 10/63/58
f 10/63/58 38/64/59 39/65/60
f 18/66/61 31/67/62 40/68/63
f 39/70/60 38/69/59 35/59/54
f 35/59/54 34/58/53 39/70/60
f 37/61/56 36/60/55 41/71/64
f 41/71/64 42/72/65 37/61/56
f 42/72/65 41/71/64 43/73/66
f 43/73/66 44/74/67 42/72/65
f 44/74/67 43/73/66 45/75/68
f 45/75/68 46/76/69 44/74/67
f 46/76/69 45/75/68 47/77/70
f 47/77/70 48/78/71 46/76/69
f 48/80/71 47/79/70 40/68/63
f 40/68/63 31/67/62 48/80/71
f 40/90/79 47/81/72 45/82/73
f 40/90/79 45/82/73 43/83/74
f 40/90/79 43/83/74 41/84/75
f 40/90/79 41/84/75 36/85/76
f 40/90/79 36/85/76 35/86/77
f 40/90/79 35/86/77 38/87/77
f 40/90/79 38/87/77 10/88/74
f 10/88/74 18/89/78 40/90/79
f 48/99/88 31/91/80 33/92/81
f 48/99/88 33/92/81 39/93/82
f 48/99/88 39/93/82 34/94/83
f 48/99/88 34/94/83 37/95/84
f 48/99/88 37/95/84 42/96/85
f 48/99/88 42/96/85 44/97/86
f 44/97/86 46/98/87 48/99/88
f 52/103/92 49/100/89 50/101/90
f 50/101/90 51/102/91 52/103/92
f 54/107/93 50/104/93 49/105/93
f 49/105/93 53/106/94 54/107/93
f 56/111/98 54/108/95 53/109/96
f 53/109/96 55/110/97 56/111/98
f 58/113/102 56/111/99 55/110/100
f 55/110/100 57/112/101 58/113/102
f 60/115/104 58/113/102 57/112/101
f 57/112/101 59/114/103 60/115/104
f 59/114/103 61/116/105 62/117/106
f 62/117/106 60/115/104 59/114/103
f 64/121/109 62/118/107 61/119/108
f 61/119/108 63/120/109 64/121/109
f 51/102/113 64/122/110 63/123/111
f 63/123/111 52/103/112 51/102/113
f 65/124/114 66/125/115 67/126/116
f 66/125/115 68/127/117 67/126/116
f 68/127/117 69/128/118 67/126/116
f 69/128/118 70/129/119 67/126/116
f 70/129/119 71/130/120 67/126/116
f 71/130/120 65/124/114 67/126/116
f 49/105/122 28/48/38 27/47/37
f 27/47/37 53/106/121 49/105/122
f 53/109/124 27/46/36 26/45/35
f 26/45/35 55/110/123 53/109/124
f 59/114/126 25/44/34 24/43/33
f 24/43/33 61/116/125 59/114/126
f 61/119/128 24/53/44 30/52/43
f 30/52/43 63/120/127 61/119/128
f 63/123/129 30/51/42 29/50/41
f 29/50/41 52/103/129 63/123/129
f 52/103/131 29/50/40 28/49/39
f 28/49/39 49/100/130 52/103/131
f 55/110/133 26/45/48 32/55/47
f 32/55/47 57/112/132 55/110/133
f 57/112/132 32/55/47 25/44/34
f 25/44/34 59/114/126 57/112/132
f 71/130/120 51/131/134 50/132/135
f 50/132/135 65/124/114 71/130/120
f 65/124/114 50/132/135 54/133/136
f 54/133/136 66/125/115 65/124/114
f 66/125/115 54/133/136 56/134/137
f 56/134/137 68/127/117 66/125/115
f 68/127/117 56/134/137 58/135/138
f 68/127/117 58/135/138 60/136/139
f 68/127/117 60/136/139 62/137/140
f 62/137/140 69/128/118 68/127/117
f 69/128/118 62/137/140 64/138/141
f 64/138/141 70/129/119 69/128/118
f 70/129/119 64/138/141 51/131/134
f 51/131/134 71/130/120 70/129/119
